<?xml version="1.0" standalone="no"?>
<!DOCTYPE svg PUBLIC "-//W3C//DTD SVG 20010904//EN"
 "http://www.w3.org/TR/2001/REC-SVG-20010904/DTD/svg10.dtd">
<svg version="1.0" xmlns="http://www.w3.org/2000/svg"
 width="1024.000000pt" height="1024.000000pt" viewBox="0 0 1024.000000 1024.000000"
 preserveAspectRatio="xMidYMid meet">
<metadata>
Created by potrace 1.14, written by Peter Selinger 2001-2017
</metadata>
<g transform="translate(0.000000,1024.000000) scale(0.100000,-0.100000)"
fill="#000000" stroke="none">
<path d="M5114 8636 c-25 -11 -35 -26 -54 -77 -13 -35 -34 -85 -47 -111 -12
-26 -23 -58 -23 -71 0 -25 32 -62 43 -50 4 3 7 1 7 -7 0 -9 3 -10 13 -1 10 7
17 7 24 0 8 -8 17 -8 32 0 12 7 21 9 21 6 0 -13 39 35 45 57 4 12 11 28 14 33
4 6 14 30 21 55 8 25 17 47 21 50 4 3 10 21 14 40 5 29 2 39 -17 57 -31 28
-76 36 -114 19z"/>
<path d="M4269 8572 c-36 -11 -45 -31 -44 -97 0 -36 -3 -65 -7 -65 -17 0 9
-66 27 -69 77 -11 130 3 132 34 1 5 4 46 7 90 l7 80 -30 18 c-27 16 -59 19
-92 9z"/>
<path d="M3240 8422 c-47 -22 -70 -51 -68 -84 1 -16 5 -28 8 -28 7 0 35 -63
32 -72 -1 -5 3 -8 9 -8 5 0 8 -4 4 -9 -3 -5 2 -16 11 -25 8 -9 12 -21 8 -27
-5 -8 -3 -9 6 -4 10 6 12 4 7 -8 -3 -10 -2 -17 3 -17 6 0 10 -6 10 -14 0 -7 7
-19 15 -26 8 -7 12 -16 9 -21 -5 -8 9 -13 29 -10 4 0 7 -4 7 -10 0 -5 4 -8 9
-4 5 3 13 0 17 -6 4 -8 9 -7 15 2 8 12 11 11 19 -1 6 -10 10 -11 10 -2 0 6 3
11 8 11 24 -4 77 32 77 52 0 5 7 14 15 19 10 7 11 10 3 10 -7 0 -13 9 -13 19
0 11 -6 22 -12 24 -10 4 -10 6 0 6 7 1 4 9 -8 21 -11 11 -20 28 -20 39 0 10
-7 24 -15 31 -8 7 -12 16 -9 21 3 5 0 9 -5 9 -6 0 -11 9 -11 20 0 11 -4 20
-10 20 -5 0 -10 6 -10 14 0 8 -10 27 -22 41 -29 33 -81 40 -128 17z"/>
<path d="M5830 8383 c-19 -13 -33 -26 -30 -28 3 -2 -23 -33 -56 -69 -34 -36
-59 -66 -57 -66 2 0 -3 -7 -11 -16 -9 -8 -16 -24 -16 -34 0 -21 37 -60 57 -60
7 0 13 -5 13 -11 0 -6 5 -7 13 -2 6 4 24 8 39 9 18 1 44 19 81 58 29 31 52 56
50 56 -2 0 15 18 37 39 60 58 64 108 10 136 -41 21 -90 17 -130 -12z"/>
<path d="M4520 8084 c0 -7 -15 -12 -32 -12 -76 -2 -127 -8 -134 -15 -4 -4 -14
-1 -22 6 -13 9 -14 9 -8 0 4 -7 3 -13 -1 -13 -5 0 -15 6 -22 13 -11 10 -13 10
-7 0 5 -9 0 -13 -14 -13 -13 0 -19 -4 -14 -11 5 -8 1 -8 -13 0 -14 7 -24 7
-33 -2 -10 -10 -11 -9 -5 3 6 12 5 13 -6 3 -7 -7 -23 -13 -35 -13 -12 0 -25
-6 -27 -12 -4 -9 -6 -9 -6 -1 -1 14 -41 5 -41 -11 0 -6 -4 -6 -9 3 -6 9 -10
10 -16 2 -5 -9 -10 -9 -21 0 -12 9 -13 9 -9 -2 3 -9 -1 -15 -12 -16 -10 -1
-31 -5 -48 -8 -16 -4 -38 -7 -47 -8 -10 -1 -18 -5 -18 -9 0 -4 -7 -8 -15 -8
-8 0 -15 5 -15 12 0 6 -9 1 -20 -12 -13 -15 -20 -18 -20 -9 0 11 -2 11 -10 -1
-5 -8 -10 -12 -10 -7 0 4 -13 1 -29 -7 -16 -9 -31 -12 -35 -9 -3 4 -6 1 -6 -7
0 -10 -4 -10 -17 1 -9 8 -14 9 -10 3 4 -7 0 -15 -9 -18 -10 -4 -13 -2 -9 7 4
6 0 4 -8 -6 -8 -10 -24 -19 -36 -20 -12 -1 -21 -5 -21 -10 0 -5 -7 -7 -15 -3
-8 3 -15 1 -15 -5 0 -6 -5 -7 -10 -4 -6 3 -13 -1 -16 -9 -3 -9 -10 -14 -14
-11 -5 3 -30 -6 -56 -19 -27 -14 -53 -22 -58 -19 -5 3 -6 2 -3 -4 3 -5 -11
-15 -31 -23 -20 -7 -39 -16 -42 -19 -3 -4 -23 -15 -45 -26 -22 -10 -46 -24
-53 -32 -8 -7 -18 -11 -23 -8 -5 4 -9 1 -9 -4 0 -6 -7 -11 -15 -11 -8 0 -15
-4 -15 -10 0 -5 -11 -12 -25 -16 -14 -4 -23 -9 -20 -12 3 -3 -16 -16 -42 -29
-27 -12 -44 -23 -40 -23 4 0 2 -6 -5 -14 -7 -8 -15 -13 -18 -13 -4 2 -76 -49
-90 -63 -3 -3 -23 -18 -45 -35 -21 -16 -62 -51 -90 -77 -27 -26 -56 -48 -63
-48 -6 0 -11 -3 -10 -7 2 -5 -15 -26 -37 -49 -49 -50 -111 -120 -147 -165 -14
-19 -38 -47 -52 -64 -15 -16 -48 -61 -74 -100 -25 -38 -51 -73 -57 -77 -5 -4
-6 -8 -1 -8 5 0 2 -7 -5 -16 -16 -20 -24 -33 -73 -126 -21 -40 -43 -79 -48
-85 -6 -7 -7 -13 -4 -13 4 0 0 -12 -8 -27 -8 -16 -21 -44 -29 -63 -8 -19 -22
-52 -32 -74 -9 -21 -18 -45 -19 -52 -1 -7 -5 -17 -9 -20 -4 -4 -7 -15 -7 -24
0 -9 -5 -21 -12 -28 -6 -6 -13 -24 -14 -39 -1 -16 -6 -41 -12 -58 -5 -16 -8
-38 -7 -47 2 -9 -4 -19 -12 -22 -10 -4 -11 -11 -5 -22 9 -16 1 -56 -19 -96 -6
-11 -5 -18 1 -18 5 0 7 -7 4 -15 -4 -8 -11 -12 -17 -8 -6 4 -7 1 -1 -8 12 -20
14 -39 3 -39 -4 0 -5 -7 -2 -17 5 -12 3 -14 -8 -8 -12 8 -12 6 0 -8 11 -14 11
-20 0 -34 -8 -9 -9 -14 -3 -10 8 4 11 -2 10 -18 0 -14 -5 -25 -10 -25 -5 0 -3
-6 3 -13 6 -8 8 -17 4 -21 -12 -12 -12 -40 0 -48 8 -5 8 -8 1 -8 -12 0 -12
-29 0 -48 4 -6 3 -12 -2 -12 -5 0 -9 -18 -9 -40 0 -26 4 -37 11 -33 6 4 5 -1
-3 -10 -11 -14 -11 -20 -1 -32 10 -12 9 -16 -4 -21 -14 -5 -14 -7 0 -21 11
-12 12 -18 4 -23 -9 -5 -9 -9 -1 -14 6 -4 11 -12 11 -17 0 -6 -6 -7 -12 -3
-10 6 -10 5 -1 -7 6 -8 10 -27 9 -42 -2 -15 0 -27 3 -27 3 0 6 -15 5 -32 0
-18 4 -39 9 -45 6 -9 5 -13 -4 -13 -10 0 -11 -3 -3 -8 7 -4 13 -20 15 -37 2
-16 7 -35 11 -41 4 -6 9 -27 10 -47 2 -20 6 -37 9 -37 3 0 6 -7 7 -15 1 -8 3
-22 4 -30 1 -8 6 -15 11 -15 5 0 3 -8 -4 -17 -10 -11 -10 -14 -1 -9 8 5 12 -1
12 -18 0 -14 4 -26 10 -26 5 0 7 -6 4 -14 -3 -8 3 -27 13 -42 14 -21 14 -26 3
-20 -12 7 -13 6 -2 -5 6 -7 12 -21 12 -31 0 -10 5 -18 11 -18 6 0 8 -9 4 -21
-5 -13 -3 -19 3 -15 5 3 12 -1 16 -9 3 -8 0 -15 -7 -15 -7 0 -4 -5 5 -10 10
-6 15 -19 13 -30 -2 -11 -1 -19 3 -16 4 2 13 -2 20 -10 7 -8 8 -14 2 -14 -5 0
-10 -4 -10 -10 0 -5 8 -10 18 -10 14 0 15 -2 2 -10 -11 -7 -11 -10 -2 -10 7 0
11 -4 8 -9 -3 -5 1 -12 10 -15 8 -3 12 -10 9 -16 -3 -5 -1 -10 4 -10 6 0 10
-3 10 -7 -4 -23 2 -43 11 -38 6 3 10 -3 10 -14 0 -12 3 -21 8 -21 4 0 13 -15
21 -32 8 -18 18 -36 23 -39 5 -3 10 -15 11 -27 0 -11 4 -20 7 -19 3 1 6 -2 8
-8 2 -5 10 -14 18 -18 8 -5 12 -12 9 -18 -4 -5 -1 -9 4 -9 6 0 11 -7 11 -16 0
-8 4 -12 10 -9 6 3 10 -1 10 -10 0 -8 7 -18 15 -21 8 -4 13 -9 10 -13 -2 -4 5
-14 16 -21 10 -8 19 -18 19 -23 0 -4 12 -19 26 -32 15 -14 24 -25 21 -25 -3 0
21 -27 53 -59 32 -33 56 -62 53 -65 -4 -3 0 -6 7 -6 7 0 26 -14 42 -32 15 -17
28 -29 28 -25 0 3 15 -10 34 -28 18 -19 38 -35 44 -35 7 0 17 -9 24 -20 7 -11
18 -20 25 -20 7 0 17 -8 22 -17 6 -10 11 -15 11 -11 0 4 11 -3 24 -15 33 -31
110 -82 119 -79 4 1 7 -3 7 -8 0 -6 9 -10 20 -10 11 0 20 -6 20 -14 0 -8 14
-17 30 -21 17 -4 28 -11 24 -16 -3 -5 4 -9 15 -9 12 0 21 -5 21 -11 0 -5 4 -8
9 -4 5 3 15 0 23 -7 18 -17 100 -58 115 -58 6 0 13 -4 15 -9 1 -6 16 -11 31
-13 16 -3 32 -10 36 -17 4 -6 12 -11 17 -9 5 1 19 -3 32 -10 12 -7 22 -9 22
-5 0 4 4 3 8 -3 4 -7 18 -14 32 -15 14 -2 27 -6 30 -10 6 -6 145 -49 175 -53
11 -2 20 -4 20 -5 0 -2 7 -4 15 -6 111 -25 169 -38 187 -40 23 -3 96 -15 123
-20 130 -24 556 -24 710 -1 19 3 53 8 75 12 22 3 49 7 60 9 11 2 43 8 70 14
482 93 1016 358 1338 664 l67 65 73 -36 c39 -20 74 -40 75 -44 2 -4 7 -8 12
-8 4 0 37 -16 72 -36 34 -20 72 -42 83 -48 19 -11 80 -48 120 -73 11 -7 47
-29 80 -48 33 -20 67 -40 75 -45 8 -5 92 -55 185 -111 94 -56 184 -110 200
-120 17 -11 41 -24 55 -31 14 -7 27 -15 30 -18 3 -3 77 -48 165 -100 88 -52
162 -97 165 -101 14 -17 184 -90 250 -106 153 -38 331 -7 427 74 12 10 31 25
41 33 36 28 90 109 106 157 18 55 28 173 15 173 -5 0 -5 10 1 24 5 14 5 27 0
32 -5 5 -10 24 -12 41 -1 17 -6 29 -10 27 -4 -3 -8 5 -8 18 0 13 -7 32 -15 42
-8 10 -12 23 -8 29 3 6 1 7 -5 3 -7 -4 -12 -1 -12 8 0 9 -4 16 -8 16 -4 0 -16
13 -25 30 -10 17 -25 30 -33 30 -8 0 -14 7 -14 16 0 8 -3 13 -7 11 -11 -7 -33
19 -25 28 4 4 2 6 -3 4 -14 -4 -65 22 -65 33 0 5 -5 6 -10 3 -6 -3 -10 -1 -10
5 0 6 -4 8 -10 5 -5 -3 -10 -1 -10 4 0 6 -5 11 -11 11 -6 0 -17 7 -26 15 -8 8
-19 13 -24 10 -5 -4 -9 -1 -9 4 0 6 -9 11 -21 11 -11 0 -18 4 -15 8 3 5 -10
15 -29 22 -19 8 -35 18 -35 22 0 5 -5 6 -10 3 -6 -3 -13 1 -16 9 -3 9 -10 16
-16 16 -5 0 -6 -5 -2 -12 4 -7 3 -8 -4 -4 -7 4 -12 15 -12 24 0 13 -2 14 -9 4
-7 -11 -9 -10 -15 3 -3 9 -10 13 -16 10 -5 -3 -10 -1 -10 5 0 6 -5 8 -10 5 -6
-3 -13 1 -16 9 -3 9 -14 16 -23 16 -9 0 -27 9 -41 20 -14 11 -30 20 -37 20 -6
0 -13 3 -15 8 -1 4 -33 23 -70 42 -38 19 -68 38 -68 43 0 4 -4 6 -9 2 -5 -3
-16 1 -24 9 -8 8 -17 12 -21 9 -3 -4 -6 -1 -6 6 0 7 -4 9 -10 6 -5 -3 -10 -1
-10 4 0 6 -7 11 -15 11 -8 0 -15 4 -15 10 0 5 -3 9 -7 8 -14 -3 -63 25 -63 35
0 6 -3 7 -6 4 -4 -4 -20 3 -35 14 -16 11 -29 17 -29 13 0 -4 -9 1 -20 11 -11
10 -20 14 -20 10 0 -5 -7 0 -15 11 -8 10 -15 15 -15 11 0 -5 -7 -1 -16 7 -8 9
-22 16 -30 16 -8 0 -14 4 -14 10 0 5 -6 7 -14 4 -8 -3 -20 3 -27 14 -7 11 -19
18 -26 15 -7 -3 -13 0 -13 7 0 6 -4 8 -10 5 -5 -3 -10 -1 -10 4 0 6 -7 11 -15
11 -9 0 -18 6 -21 13 -3 8 -11 14 -19 15 -8 1 -22 3 -30 4 -8 1 -15 8 -15 15
0 8 -4 12 -9 9 -5 -3 -20 4 -35 15 -14 11 -26 18 -26 14 0 -3 -13 3 -29 14
-16 12 -34 21 -41 21 -6 0 -8 4 -5 10 3 6 -1 7 -9 4 -9 -4 -18 1 -22 10 -3 9
-10 14 -14 11 -5 -3 -15 1 -23 9 -8 8 -17 12 -21 9 -3 -3 -8 2 -12 11 -3 9
-10 13 -15 10 -16 -9 -22 25 -8 43 8 9 9 14 2 10 -8 -5 -8 -1 0 17 7 13 15 22
19 20 4 -3 5 5 3 16 -2 11 0 20 6 20 5 0 8 3 7 8 -1 7 2 15 19 60 4 9 8 24 9
32 4 19 12 53 14 60 1 3 2 8 1 13 0 4 4 7 10 7 5 0 7 4 4 10 -3 5 -1 19 6 31
9 17 8 20 -2 14 -7 -5 -6 1 4 14 8 13 13 30 10 37 -3 8 -1 20 5 27 5 6 8 20 7
30 -2 9 1 17 6 17 4 0 6 6 3 14 -3 8 -1 17 5 20 7 5 7 15 1 32 -7 18 -7 23 2
18 7 -5 9 0 6 14 -4 12 -3 24 0 26 4 2 6 19 6 38 -1 18 4 39 10 47 9 12 8 13
-4 6 -13 -8 -13 -7 -1 8 11 14 11 17 0 17 -9 0 -10 3 -4 8 6 4 10 25 10 47 0
22 5 43 10 47 6 5 5 8 -2 8 -9 0 -10 7 -4 23 5 14 5 30 0 40 -7 11 -6 17 1 17
6 0 9 4 6 9 -3 4 -7 49 -8 100 -2 50 -7 91 -12 91 -4 0 -3 7 4 15 7 8 8 15 2
15 -9 0 -11 22 -12 98 0 13 -5 20 -10 17 -7 -4 -7 2 0 19 5 13 5 26 1 28 -4 2
-11 16 -15 31 -4 18 -3 26 3 23 6 -4 4 6 -4 21 -8 15 -15 36 -15 46 0 9 -5 17
-11 17 -8 0 -8 4 0 13 7 9 7 17 1 23 -6 6 -13 19 -15 30 -16 67 -41 140 -50
146 -5 4 -6 8 -1 8 5 0 4 6 -1 13 -6 6 -9 22 -8 34 1 12 -3 21 -9 20 -5 -1
-10 3 -11 8 0 6 -6 20 -13 31 -6 12 -8 24 -5 28 3 3 1 6 -5 6 -7 0 -12 9 -12
20 0 11 -4 20 -9 20 -8 0 -24 37 -22 53 1 4 -4 7 -10 7 -5 0 -7 5 -4 10 3 6 1
10 -4 10 -6 0 -11 9 -11 20 0 11 -4 20 -9 20 -5 0 -17 18 -27 40 -10 22 -22
40 -27 40 -4 0 -5 5 -2 10 3 6 1 10 -4 10 -6 0 -11 7 -11 15 0 8 -4 15 -10 15
-5 0 -10 5 -10 11 0 6 -6 17 -12 24 -29 32 -38 45 -33 45 6 0 -19 31 -52 66
-13 13 -23 31 -23 40 0 10 -3 15 -6 11 -8 -8 -34 18 -34 33 0 6 -4 8 -10 5 -5
-3 -10 0 -10 7 0 8 -9 20 -20 28 -11 8 -20 20 -20 28 0 7 -4 11 -8 8 -5 -3
-14 4 -22 14 -8 10 -17 17 -22 14 -4 -3 -8 4 -8 15 0 12 -6 21 -13 21 -7 0
-23 14 -37 30 -14 17 -29 30 -33 30 -13 0 -37 27 -30 34 4 3 -1 6 -10 6 -9 0
-17 5 -17 10 0 6 -6 10 -14 10 -8 0 -17 7 -20 16 -3 8 -10 12 -16 9 -5 -3 -10
1 -10 10 0 9 -4 13 -10 10 -5 -3 -10 -1 -10 5 0 6 -4 8 -10 5 -5 -3 -10 1 -10
9 0 9 -3 15 -7 15 -20 -3 -34 2 -29 10 7 11 -22 23 -35 15 -5 -3 -9 3 -9 12 0
10 -3 15 -6 11 -4 -3 -15 4 -26 16 -11 12 -17 16 -13 10 3 -7 1 -13 -4 -13 -6
0 -11 10 -11 23 0 16 -3 18 -9 8 -7 -11 -12 -10 -27 8 -10 11 -26 21 -36 21
-10 0 -18 5 -18 10 0 6 -7 10 -15 10 -8 0 -24 9 -34 19 -14 14 -21 16 -25 8
-2 -7 -5 -4 -5 5 -1 9 -6 20 -13 24 -7 5 -8 3 -3 -7 7 -11 6 -12 -7 -2 -8 7
-18 10 -21 6 -4 -3 -7 -1 -7 6 0 7 -4 9 -10 6 -5 -3 -10 -1 -10 4 0 6 -9 11
-19 11 -11 0 -21 4 -23 10 -1 5 -13 11 -24 13 -12 1 -29 11 -38 20 -19 18 -31
23 -22 8 4 -5 -5 -4 -18 2 -13 7 -22 15 -20 19 3 5 -6 8 -20 8 -14 0 -26 5
-26 11 0 5 -5 7 -12 3 -6 -4 -17 1 -25 11 -7 11 -13 13 -13 7 0 -7 -4 -12 -10
-12 -5 0 -10 6 -10 14 0 10 -8 13 -22 11 -12 -3 -31 3 -42 13 -19 16 -19 16
-13 -3 6 -17 5 -18 -5 -4 -7 9 -19 14 -27 11 -8 -2 -11 0 -8 5 4 6 -4 8 -18 5
-16 -3 -25 0 -25 8 0 7 -7 10 -15 6 -8 -3 -15 0 -15 6 0 6 -3 8 -7 5 -3 -4
-17 0 -31 9 -13 9 -21 11 -18 5 4 -6 3 -11 -3 -11 -5 0 -13 5 -16 11 -4 6 -13
8 -21 5 -9 -3 -14 1 -15 12 0 10 -3 12 -6 5 -2 -7 -9 -13 -14 -13 -6 0 -7 5
-4 10 8 13 -18 8 -27 -5 -5 -6 -8 -5 -8 3 0 7 -4 11 -9 7 -5 -3 -12 -1 -16 4
-3 6 -12 8 -20 4 -8 -3 -15 -1 -15 4 0 5 -7 10 -15 10 -12 0 -12 -3 -3 -16 8
-10 5 -9 -9 3 -12 10 -29 16 -37 13 -9 -4 -20 1 -25 11 -10 16 -10 15 -11 -2
0 -13 -4 -16 -12 -9 -7 5 -22 9 -33 8 -11 0 -28 3 -39 8 -14 7 -17 6 -10 -5 5
-8 -3 -6 -20 6 -16 10 -25 13 -22 7 4 -6 3 -11 -3 -11 -5 0 -12 6 -14 13 -4 9
-6 9 -6 -1 -1 -7 -6 -10 -12 -6 -7 4 -25 7 -41 6 -18 0 -26 3 -22 10 5 7 2 8
-7 3 -20 -13 -52 -14 -66 -3 -7 6 -14 5 -18 -3 -6 -8 -10 -7 -16 2 -7 12 -9
12 -9 0 0 -10 -3 -11 -13 -3 -8 7 -18 7 -27 2 -8 -5 -21 -5 -32 1 -13 7 -18 6
-18 -3 0 -9 -3 -9 -12 0 -9 9 -15 9 -26 -1 -12 -9 -16 -9 -20 1 -3 10 -7 10
-19 1 -12 -10 -16 -10 -24 2 -5 8 -9 9 -9 3z"/>
<path d="M2456 7772 c-16 -2 -35 -10 -42 -17 -8 -7 -18 -15 -23 -17 -6 -1 -12
-20 -15 -40 -4 -36 1 -43 27 -39 5 1 6 -2 3 -7 -5 -9 35 -48 46 -44 4 1 4 -6
1 -15 -4 -11 -3 -14 5 -9 7 4 12 2 12 -4 0 -6 5 -8 13 -4 8 5 7 2 -2 -9 -12
-15 -12 -17 2 -12 8 4 18 2 21 -4 4 -6 14 -7 23 -4 10 4 14 2 10 -4 -5 -7 0
-9 13 -6 11 3 18 9 15 13 -3 5 4 6 15 3 12 -3 20 0 20 6 0 7 4 10 9 7 5 -3 15
2 22 11 12 14 12 16 -1 9 -9 -4 -8 -1 3 7 20 16 23 32 5 21 -9 -6 -9 -3 0 9
12 14 12 19 -1 31 -8 8 -18 12 -21 8 -4 -3 -4 2 0 13 4 11 4 17 -1 13 -4 -4
-14 0 -22 10 -10 11 -12 12 -8 2 4 -10 2 -9 -8 2 -8 10 -17 15 -20 11 -4 -3
-5 3 -3 14 3 14 -1 20 -12 19 -10 0 -16 5 -14 13 3 12 1 12 -14 0 -10 -8 -15
-9 -11 -3 9 15 -9 21 -47 16z"/>
<path d="M1860 7170 c0 -4 -14 -13 -30 -19 -17 -5 -29 -15 -28 -22 2 -6 -3
-14 -11 -17 -9 -3 -11 0 -6 8 5 9 4 11 -3 6 -9 -5 -9 -13 -2 -26 7 -13 6 -20
-3 -23 -9 -4 -9 -6 1 -6 7 -1 10 -5 7 -11 -3 -5 -1 -10 5 -10 6 0 8 -4 5 -10
-3 -5 1 -10 9 -10 9 0 16 -5 16 -11 0 -7 10 -9 26 -6 16 3 24 0 21 -7 -3 -7 4
-13 14 -14 42 -4 49 -6 49 -12 0 -3 10 -6 22 -7 11 -1 25 -8 29 -15 7 -11 9
-11 9 0 0 7 5 10 10 7 6 -4 8 -11 5 -16 -3 -5 1 -6 9 -3 10 4 16 1 16 -7 0
-11 3 -11 10 1 6 10 10 11 10 3 0 -8 10 -11 28 -9 43 6 72 18 66 27 -3 5 2 6
10 3 11 -4 16 0 16 11 0 9 4 14 8 11 4 -2 9 9 10 25 1 16 -2 29 -8 29 -5 0 -7
7 -4 15 4 10 0 15 -16 15 -12 0 -18 4 -15 11 4 6 0 9 -11 7 -11 -2 -18 2 -16
10 2 10 -2 10 -17 2 -16 -8 -23 -6 -34 11 -10 14 -16 16 -19 8 -3 -9 -14 -6
-38 11 -19 13 -30 18 -26 9 5 -9 3 -9 -6 2 -7 9 -21 15 -30 13 -10 -1 -18 3
-18 9 0 5 -3 8 -6 5 -3 -4 -19 -2 -35 2 -16 5 -29 5 -29 0z"/>
<path d="M1837 6417 c-4 -11 -12 -15 -19 -11 -17 11 -258 11 -258 1 0 -5 -4
-5 -10 -2 -5 3 -10 1 -10 -5 0 -6 -4 -8 -10 -5 -5 3 -10 -1 -10 -10 0 -9 -4
-14 -9 -11 -5 4 -12 -11 -14 -31 -7 -50 -6 -73 5 -67 4 3 8 0 8 -6 0 -6 4 -9
9 -6 5 4 11 1 13 -5 2 -7 24 -12 49 -12 24 0 47 -5 51 -11 5 -8 8 -7 8 2 0 7
14 12 36 12 25 0 33 -4 29 -12 -4 -7 1 -4 9 6 9 11 16 15 16 9 0 -8 9 -9 29
-3 15 4 34 4 42 0 7 -5 17 -6 21 -3 5 2 16 -1 24 -8 12 -10 13 -9 8 4 -4 12
-1 15 15 12 12 -2 19 0 16 6 -4 5 -1 9 5 9 39 0 54 81 22 118 -15 17 -21 19
-31 9 -10 -9 -11 -8 -5 8 7 17 6 18 -8 7 -14 -11 -17 -10 -20 5 -3 17 -4 17
-11 0z"/>
<path d="M5978 3605 c-2 -2 -15 -6 -28 -8 -54 -11 -115 -38 -180 -81 -107 -71
-175 -173 -182 -271 -2 -30 -4 -33 -32 -30 -17 1 -22 0 -12 -2 29 -7 46 -29
46 -59 0 -45 68 -171 113 -209 95 -81 231 -96 372 -40 134 53 220 127 270 230
33 70 30 194 -7 276 -41 90 -121 165 -200 186 -26 7 -154 13 -160 8z m84 -188
c101 -55 136 -211 67 -298 -103 -130 -290 -90 -329 70 -17 73 -6 133 33 178
61 70 155 90 229 50z"/>
<path d="M7285 3358 c-109 -60 -167 -231 -116 -343 23 -51 41 -66 89 -72 115
-15 196 69 197 202 0 79 -29 154 -71 182 -28 18 -46 8 -70 -39 -15 -28 -14
-30 31 -73 25 -24 45 -52 46 -62 0 -10 2 -27 4 -38 10 -49 -27 -105 -69 -105
-34 0 -94 102 -95 160 -1 46 19 95 54 133 48 52 48 82 0 55z"/>
<path d="M5205 3242 c-27 -11 -123 -55 -211 -99 l-162 -79 40 -85 c22 -46 46
-100 55 -119 8 -19 21 -48 28 -65 27 -59 93 -221 115 -282 12 -35 25 -61 29
-59 3 2 45 22 93 45 l87 41 -51 113 c-80 176 -158 358 -158 365 0 12 120 65
147 65 60 0 87 -81 43 -128 -13 -14 -41 -33 -61 -42 l-38 -17 138 -138 139
-139 83 40 c46 22 90 44 97 49 9 6 -9 26 -65 73 -43 35 -83 69 -89 74 -7 6
-26 23 -43 38 l-32 27 29 37 c16 21 33 49 39 63 24 60 -11 171 -69 213 -38 29
-120 32 -183 9z"/>
<path d="M5450 3221 c0 -6 4 -13 10 -16 6 -3 7 1 4 9 -7 18 -14 21 -14 7z"/>
<path d="M6930 3177 c-62 -27 -78 -38 -93 -68 -18 -38 -14 -69 8 -69 8 0 30 9
49 21 34 20 36 20 36 2 2 -40 8 -120 15 -163 16 -114 45 -142 91 -87 23 28 26
37 20 84 -3 29 -13 78 -21 110 -8 31 -15 67 -15 80 0 12 -5 25 -11 28 -6 5 -3
13 10 22 25 17 28 58 5 67 -9 3 -16 6 -17 5 -1 0 -36 -15 -77 -32z"/>
<path d="M6671 3059 c-31 -12 -80 -67 -83 -91 -8 -89 7 -114 88 -142 77 -28
91 -37 103 -63 23 -50 -13 -58 -60 -13 -26 24 -35 28 -51 19 -25 -13 -38 -49
-27 -71 20 -38 134 -44 172 -10 71 64 57 180 -24 211 -79 31 -101 44 -110 68
-6 17 -6 30 0 36 16 16 37 1 56 -39 l17 -37 18 23 c19 25 19 65 0 100 -12 22
-56 26 -99 9z"/>
<path d="M4585 2944 c-49 -25 -91 -48 -93 -53 -1 -4 17 -50 41 -102 42 -91
125 -288 184 -435 l28 -72 95 45 c52 25 96 47 98 48 2 2 -8 28 -22 59 -14 31
-37 80 -50 109 -37 80 -109 252 -146 347 -18 47 -36 88 -39 91 -3 4 -46 -13
-96 -37z"/>
<path d="M6427 2883 c-9 -11 -18 -46 -22 -88 -17 -191 -39 -239 -59 -125 -2
14 -7 41 -10 60 -4 19 -8 57 -11 84 -2 27 -9 54 -15 60 -14 14 -79 -21 -81
-43 -9 -96 30 -286 66 -325 30 -32 76 -35 103 -6 24 26 42 85 42 136 l0 39 20
-33 c23 -38 76 -73 99 -65 23 9 51 34 51 48 0 6 -8 20 -18 31 -25 27 -75 118
-102 187 -23 60 -37 68 -63 40z"/>
<path d="M4200 2766 c-146 -52 -232 -103 -298 -175 -148 -161 -105 -436 87
-549 36 -21 57 -26 115 -26 85 0 100 3 199 43 70 28 277 148 277 161 0 15
-140 335 -148 338 -5 1 -63 -25 -130 -58 l-122 -60 14 -32 c42 -99 39 -97 88
-72 35 18 41 13 58 -45 12 -44 -1 -61 -73 -91 -69 -30 -136 -24 -179 16 -66
62 -90 180 -53 257 41 87 154 155 289 173 26 4 45 10 44 13 -42 86 -71 131
-86 131 -9 -1 -46 -11 -82 -24z"/>
<path d="M6035 2757 c-105 -36 -185 -246 -133 -354 25 -52 62 -83 100 -83 25
0 41 10 73 45 l42 45 7 -47 c3 -25 4 -48 2 -50 -2 -2 -16 1 -32 7 -25 10 -31
8 -47 -11 -10 -12 -17 -32 -15 -43 6 -41 100 -24 147 27 34 38 35 118 2 310
-3 18 -36 4 -66 -27 -20 -22 -32 -45 -33 -63 0 -50 -2 -59 -15 -77 -35 -48
-87 47 -82 147 3 47 31 117 48 117 10 0 27 -46 27 -76 0 -13 5 -24 10 -24 12
0 50 36 51 50 5 41 4 58 -7 81 -16 32 -39 39 -79 26z"/>
<path d="M5520 2501 c-43 -35 -42 -74 6 -299 19 -87 33 -105 72 -91 57 21 112
60 113 79 1 11 2 26 3 33 4 26 -7 26 -49 -3 l-43 -29 -6 52 c-3 29 -9 88 -12
132 -11 156 -24 176 -84 126z"/>
<path d="M5274 2390 c-30 -12 -79 -74 -103 -131 -15 -37 -19 -68 -18 -133 2
-79 4 -87 31 -115 61 -63 146 -50 226 35 43 45 50 59 50 93 0 22 -4 42 -9 45
-5 3 -21 -13 -36 -37 -31 -47 -71 -87 -86 -87 -17 0 -49 20 -49 30 0 5 22 21
49 35 55 27 81 57 81 92 0 30 -8 29 -89 -12 -51 -25 -70 -31 -74 -21 -17 44
22 181 45 158 6 -6 12 -37 13 -67 0 -30 3 -56 5 -57 12 -6 47 30 63 64 16 34
16 41 3 73 -8 19 -21 35 -28 36 -7 0 -22 2 -33 4 -11 2 -29 0 -41 -5z"/>
<path d="M4878 2207 c-49 -19 -127 -65 -155 -93 -24 -25 -32 -84 -11 -84 7 0
23 11 37 24 l26 25 0 -32 c1 -40 17 -152 34 -237 9 -47 42 -50 123 -11 108 51
157 127 153 235 -5 138 -96 214 -207 173z m45 -89 c96 -50 112 -211 26 -262
-17 -10 -32 -16 -34 -14 -1 1 -5 21 -9 43 -6 43 -21 124 -35 192 -11 56 3 67
52 41z"/>
</g>
</svg>
