<svg xmlns="http://www.w3.org/2000/svg" width="89" height="89" viewBox="0 0 89 89" fill="none">
<g filter="url(#filter0_d_40_38)">
<path d="M44.4586 44.8572C52.365 44.8572 58.7744 38.4478 58.7744 30.5414C58.7744 22.635 52.365 16.2256 44.4586 16.2256C36.5522 16.2256 30.1428 22.635 30.1428 30.5414C30.1428 38.4478 36.5522 44.8572 44.4586 44.8572Z" fill="#FE724C"/>
</g>
<path d="M47.5822 24.406C46.8512 24.4061 46.1333 24.6008 45.5023 24.9701C44.8714 25.3394 44.3501 25.87 43.992 26.5074C43.6339 25.8698 43.1124 25.3392 42.4813 24.9699C41.8501 24.6006 41.1321 24.406 40.4008 24.406C39.2809 24.4665 38.2274 24.9564 37.4595 25.7738C36.6916 26.5913 36.2683 27.6733 36.2779 28.7948C36.2779 34.514 43.992 38.504 43.992 38.504C43.992 38.504 51.7062 34.516 51.7062 28.7948C51.7157 27.6731 51.2924 26.591 50.5242 25.7735C49.7561 24.956 48.7023 24.4662 47.5822 24.406V24.406Z" fill="white"/>
<defs>
<filter id="filter0_d_40_38" x="0.142822" y="0.225586" width="88.6316" height="88.6316" filterUnits="userSpaceOnUse" color-interpolation-filters="sRGB">
<feFlood flood-opacity="0" result="BackgroundImageFix"/>
<feColorMatrix in="SourceAlpha" type="matrix" values="0 0 0 0 0 0 0 0 0 0 0 0 0 0 0 0 0 0 127 0" result="hardAlpha"/>
<feOffset dy="14"/>
<feGaussianBlur stdDeviation="15"/>
<feColorMatrix type="matrix" values="0 0 0 0 0.996078 0 0 0 0 0.447059 0 0 0 0 0.298039 0 0 0 0.4 0"/>
<feBlend mode="normal" in2="BackgroundImageFix" result="effect1_dropShadow_40_38"/>
<feBlend mode="normal" in="SourceGraphic" in2="effect1_dropShadow_40_38" result="shape"/>
</filter>
</defs>
</svg>